<svg xmlns="http://www.w3.org/2000/svg" xmlns:xlink="http://www.w3.org/1999/xlink" style="display:none">
 <symbol id="flag-de" viewBox="0 0 5 3">
    <rect id="black_stripe" width="5" height="3" y="0" x="0" fill="#000"/>
    <rect id="red_stripe" width="5" height="2" y="1" x="0" fill="#D00"/>
    <rect id="gold_stripe" width="5" height="1" y="2" x="0" fill="#FFCE00"/>
  </symbol>
  <symbol id="flag-en" viewBox="0 0 60 30">
    <clipPath id="flag-en-clip">
      <path d="M30,15 h30 v15 z v15 h-30 z h-30 v-15 z v-15 h30 z"/>
    </clipPath>
    <path d="M0,0 v30 h60 v-30 z" fill="#00247d"/>
    <path d="M0,0 L60,30 M60,0 L0,30" stroke="#fff" stroke-width="6"/>
    <path d="M0,0 L60,30 M60,0 L0,30" clip-path="url(#flag-en-clip)" stroke="#cf142b" stroke-width="4"/>
    <path d="M30,0 v30 M0,15 h60" stroke="#fff" stroke-width="10"/>
    <path d="M30,0 v30 M0,15 h60" stroke="#cf142b" stroke-width="6"/>
  </symbol>
  <symbol id="flag-pl" viewBox="0 0 16 10">
    <rect width="16" height="5" fill="#fff"/>
    <rect width="16" height="5" fill="#dc143c" y="5"/>
  </symbol>
  <symbol id="flag-es" viewBox="0 0 750 500">
    <path fill="#C60B1E" d="M0 0h750v500H0V0z"/><path fill="#FFC400" d="M0 125h750v250H0V125z"/><path fill="#8D281E" d="M183.48 338.63c.7-.02 1.4.06 2.08.21-.64-.13-1.34-.21-2.08-.21zm-15.55-7.24c.01 0 .01 0 0 0zm13.56 2.61a9.9 9.9 0 012-.2c-.76-.03-1.4.06-2 .2zm148.42-2.21zm-157.26 8.03c-.56-.3-1.19-.55-1.85-.74.62.2 1.22.46 1.85.74zm5.11.27c-.65.14-1.37.23-2.11.23.71.01 1.42-.07 2.11-.23zm151.09-5.49c1-.5 2.33-.8 3.8-.8-1.47 0-2.81.3-3.8.8zm-149.26.04c.01-.01.03-.01.04-.02-.61.24-1.22.48-1.9.66.7-.15 1.33-.36 1.86-.64zm137.5-.84c.01 0 .01 0 0 0zm0-2.41c.01 0 .01 0 0 0zm.01 7.24c-1.07 0-2.06.16-2.92.44.85-.28 1.85-.44 2.92-.44zm-5.43-5.83c1-.22 1.79-.76 2.79-1.04-1.01.27-1.8.81-2.79 1.04zm-122.47 2.48c.66.15 1.33.22 2.01.21-.72 0-1.39-.07-2.01-.21zm-1.85 4.17c.05.03.11.04.17.07a2.75 2.75 0 00-.36-.15c.06.03.13.05.19.08zm125.87-4.82c-.2.1-.41.18-.62.26.8-.3 1.52-.63 2.35-.85-.64.14-1.23.34-1.73.59zm-139.64.64c.68.16 1.38.24 2.08.23-.74 0-1.44-.09-2.08-.23zm10.78-99.02c-.11-.03-.21-.06-.33-.06-3.04.01-5.57.01-7.64.01 2.16.01 4.81.03 7.97.05zm-5.98-12.06c-.9-.09-1.81-.14-2.72-.12-1.66 0-3.25.13-4.57.34 2.17-.33 5.01-.4 7.29-.22zm139.79-1.28c1.83-.42 4.13-.68 6.67-.68-2.54 0-4.84.26-6.67.68zm-127.02 117.4c-.7-.01-1.35-.08-1.96-.21.65.15 1.3.22 1.96.21zm129.09-115.9c2.18-.33 5.03-.4 7.32-.22-.91-.09-1.81-.14-2.73-.12-1.66 0-3.26.13-4.59.34zM167.93 333.8c.01 0 .01 0 0 0zm148.56-97.6c.24.15 2.64.07 5.61-.02-2.96.02-5.38.03-5.61.02zm-152.41 96.01c.78-.41 1.78-.67 2.9-.77-1.13.1-2.12.36-2.9.77zm7.65-.02c-.03-.01-.06-.02-.09-.04.03.02.06.03.09.04zm-6.39 6.78c.77-.21 1.63-.34 2.58-.34-.89-.01-1.77.08-2.58.34zm8.24-6.11c3.79 1.13 6.23-1.46 9.91-1.47-3.67.01-6.15 2.59-9.91 1.47zm10.3.96c1.34.05 2.55.35 3.46.81-.9-.46-2.12-.76-3.46-.81zm-11.96-3.96c1.17.55 2.45.84 3.74.82 9.47-1.1-2.29-.77-3.74-.82zm45.58-150.94c-12.58-3.2-23.08 17.51-9.8 11.2 4.54-3.79 16.89-.02 12.55-5.37.76-5.43 4.62-5.7-2.75-5.83zm5.77 2.45c-.18 1.21-.08 2.47.25 3.63a9.044 9.044 0 01-.25-3.63zm1.32 6.09c-.23-.44-.5-.95-.72-1.47.2.51.43 1.01.72 1.47zm-20.64-6.32a.71.71 0 00-.14.1c-.21.16-.42.33-.62.51.24-.21.5-.41.76-.61zm133.06 89.24c-1.6-.6-4.77-3.29-3.98.3-.1.65-.17 1.27-.25 1.88.53-1.18 1.84-2.1 4.23-2.18zm-136.88-79.34zm-32.58 79.64c.05.2.07.37.1.56-.03-.84-.07-1.71-.1-2.64-4.04 1.4-4.62 2.15 0 2.08zm131.65-86.02c.58 1.07.86 2.27.96 3.44-.1-1.16-.36-2.37-.96-3.44zm-93.96 20.42c.02-.02.03-.05.05-.07l-.01.01c-.01.01-.02.04-.04.06zm71.57-23.35c.07.74.04 1.47-.06 2.18.11-.71.14-1.46.06-2.18zm55.83 154.49c-1.46 0-2.8.3-3.79.79.99-.49 2.33-.79 3.79-.79zm-53.95-150.43c1.04 1.46 25.26 11.75 18.96-.22-.32-4.26-18.09-10.01-19.5-4.96 1.66-1.36 1.79 5.77.54 5.18zm15.27 18.89c.19-.02.38-.01.55.03-.17-.04-.36-.06-.55-.03zm-68.9-22.97c-1.74 9.76 24.24 2.6 21-5.47-5.78-4.76-21.01-2.1-21 5.47zm102.02 151.13zm0 2.41zM204.87 180.51c-.06.03-.11.07-.16.1-.17.11-.33.23-.5.35.21-.15.43-.3.66-.45zm68.49 6.73c4.84-6.76-1.3-13.49-10.58-13.45-21.27 3.16.54 13.02 10.58 13.45zm51.57 153.08c-.74 0-1.45-.08-2.1-.22.69.15 1.39.23 2.1.22zm-5.98-6.35c1.36.31 2.43.95 3.91 1.32-1.41-.37-2.53-1.01-3.91-1.32zm2.13-4.11c1 .5 2.35.82 3.84.82 7.59-.68-1.53-.95-3.84-.82zm-2.15 1.69c1.38.3 2.44.95 3.93 1.32-1.42-.36-2.54-1.01-3.93-1.32zm19.45 3.72c-1.15-.26-2.05-.78-3.11-1.12 1.03.34 1.89.85 3.11 1.12zm-8.66 3.82c-.64.19-1.25.44-1.79.72.61-.27 1.19-.52 1.79-.72zM275.41 187.5l.18-.3c-.07.11-.16.22-.18.3zm59.82 144.24c1.03.33 1.9.83 3.1 1.12-1.14-.28-2.04-.79-3.1-1.12zm-3.04 6.9c.15 0 .29-.01.45-.01.89 0 1.7.11 2.44.29-.91-.26-1.9-.34-2.89-.28zM165.4 220.96c-4.99-6.27 6.8-5.52 9.41-7.64-1.31-.25 1.06-.92.56-1.89-1.52.26.12-1.28.6-1.15-.24.93.86.21.62 1.15-1.26-.28-.44 1.48.38 1.3-1.58 2.54 2.88.89 4.63 2.33 5.26-1.43 7.14 7.92.94 7.34.79.17 1.48.4.81.77-.24.33-.44.8-.12 1.16-.58-.11-.7.68-1.03.5 1.8 1.16-1.74 1.57-3.16 1.7h7.82c-.36 2.13 1.22 6.67-2.14 6.03.45.29.47.86-.27 1.08.02-.01.05-.01.06-.01-1.3.36-1.36 2.27-.05 2.65-.01 0-.03 0-.04-.01 3.68 3.25-16.76.76-17.1 1.5-3.09-.62 2.82-2.83-.36-4.1h.01c-.7-.15-.82-.78-.37-1.1-3.25.6-1.65-3.98-2.03-6.03h7.74c-1.42-.23-4.65-.29-3.38-1.64-1.36-.96-.83-1.61.29-2-1.53.1-2.08-.43-3.82-1.94zm10.99 15.24c2.16.01 4.81.03 7.97.05-.11-.03-.21-.06-.33-.06-3.04.01-5.57.01-7.64.01zm-5.3-11.79c2.17-.32 5.01-.4 7.29-.22-.9-.09-1.81-.14-2.72-.12-1.66 0-3.25.13-4.57.34zm-4.12 9.25s-.1-.02-.11-.02c.03.01.07.02.11.02zm24.18 106.65c-.7-.01-1.35-.08-1.96-.21.65.15 1.3.22 1.96.21-.03.83-.01 1.65.11 2.41-5.06-3.3-34.36 2.15-30.49-2.43-2.71-1.88 1.71-2.67 3.31-3.27-5.39 1.78-4.36-.5-1.58-2.01-2.5.17-4.1-.54-.26-2.15-4.69.62-1.11-2.97 1.84-3.06.36.19.17-5.74.16-5.77 2.44.3 2.53-2.58 3.09-3.19-6.61-2.47 23.3-2.47 16.69 0 .68.54.67 3.5 3.16 3.19-.08-.05 0 5.69-.03 5.7 5.85.36 4.16 5.8 4 10.58zm-7.27-6.49c1.34.05 2.55.35 3.46.81-.9-.46-2.12-.76-3.46-.81zm-11.96-3.96c1.17.55 2.45.84 3.74.82 9.47-1.1-2.29-.77-3.74-.82zm1.66 3c3.79 1.13 6.23-1.46 9.91-1.47-3.67.01-6.15 2.59-9.91 1.47zm-1.94-.71c.03.01.07.03.1.04a.3.3 0 01-.1-.04zm-4.66-.71c-1.12.1-2.12.37-2.9.77.78-.41 1.78-.67 2.9-.77zm.94 7.19c-.89-.01-1.77.08-2.58.34a9.71 9.71 0 012.58-.34zm1.08-4.78c-.35-.04-.7-.05-1.06-.05h-.01c.37 0 .73.02 1.07.05zm.16-2.38c-.39-.05-.8-.08-1.22-.08h-.01c.43 0 .83.03 1.23.08zm3.49 8.35c-.56-.3-1.19-.55-1.85-.74.62.2 1.22.46 1.85.74zm.93-4.55c.68.16 1.38.24 2.08.23-.74 0-1.44-.09-2.08-.23zm4.18 4.82c-.65.14-1.37.23-2.11.23.71.01 1.42-.07 2.11-.23zm1.87-5.47c-.61.24-1.22.48-1.9.66.7-.15 1.33-.37 1.86-.64.01-.01.03-.01.04-.02zm1.86-.62a9.9 9.9 0 012-.2c-.76-.03-1.4.06-2 .2zm4.08 4.84c-.68-.15-1.38-.23-2.08-.21.73 0 1.43.08 2.08.21zm1.95.68a2.75 2.75 0 00-.36-.15c.06.03.14.05.2.08.04.03.1.04.16.07zm3.69-4.02c-.72 0-1.39-.08-2.01-.21.66.14 1.33.22 2.01.21zm0 4.82h-.06c.02-.01.04 0 .06 0zm137.18-125.71c.59.01.58-.87 0-.86-.59 0-.6.86 0 .86zm1.41.46c.58.01.59-.86 0-.86-.59-.01-.57.88 0 .86zm-2.85-.41c.59 0 .58-.86-.01-.85-.6-.01-.56.86.01.85zm3.98 1.34c.59.01.58-.86 0-.85-.59-.01-.57.87 0 .85zm4.95 1.53c.58.01.59-.87 0-.85-.6-.01-.58.85 0 .85zm-1.02-1.21c.59.01.58-.85 0-.85-.57-.01-.58.87 0 .85zm.74 2.36c-.01.55.91.56.9 0 .01-.55-.91-.56-.9 0zm-3.54-2.94c.6 0 .59-.86 0-.86-.58-.01-.59.86 0 .86zm1.45-.05c.58.01.59-.87 0-.86-.61-.01-.58.89 0 .86zm-14.82.31c.58 0 .57-.86-.01-.85-.58-.01-.59.86.01.85zm1.12-.93c.6.01.59-.86 0-.86-.59-.01-.57.88 0 .86zm1.42-.46c.59.01.58-.87 0-.86-.59 0-.6.86 0 .86zm1.44.05c.59.01.58-.86 0-.85-.59-.01-.57.87 0 .85zm-8.35 5.07c-.73-4.84 4.36-3.57 4.57-2.7.6-2.43 6.75-2.61 2.92-.46 2.84.97 1.37-2.71 2.18-2.93 1.83-2.47-1.22-.08.55-2.46.5-.08.69.05.6.57.85-.23.88.81.01.59-.13.63.3 1.37.98 1.3-.43 1.03-.54 3.65 1.75 2.93-4.49-2.13 2.82-2.22 2.53.44.82-.71 2.57 1.11.81-.61 5.74-1.53 5.36 5.99 1.09 6.15.46.15.68.35.21.62-.24.32-.46.83-.12 1.16-.62-.1-.68.71-1.08.49 1.91 1.13-1.68 1.6-3.11 1.71h7.78c-.38 2.04 1.22 6.64-2.03 6.04.45.32.33.95-.37 1.1h.01c-1.25.36-1.21 2.23.05 2.6-.12-.04-.78-.06-1.78-.07 1.51.12 2.47.36 2.39.79.79.87-21.64 2.25-18.13-.71-.01 0-.03 0-.04.01 1.3-.37 1.26-2.28-.04-2.65.02 0 .04.01.06.01-.73-.22-.71-.79-.27-1.08-3.37.64-1.79-3.87-2.15-6.02h7.79c-1.42-.22-4.66-.3-3.38-1.65-.16.08-.4-.64-.9-.58.44-.42.19-.76 0-1.14-1.16-.4 1.01-.47-1.04-.9-.7-.8-4.16-2.89-1.84-2.55zm7.77 16.45c-2.95.01-5.37.03-5.61.02.24.16 2.65.07 5.61-.02zm2.74-12.11c-1.66 0-3.26.13-4.59.34 2.18-.33 5.03-.4 7.32-.22-.91-.09-1.82-.14-2.73-.12zm-6.66-1.16c1.83-.42 4.13-.68 6.67-.68-2.54 0-4.84.26-6.67.68zm-2.06-7.22c.58.01.59-.87 0-.86-.6-.01-.57.88 0 .86zm-1.35.63c.59.01.57-.85 0-.85-.61-.02-.58.88 0 .85zm-1.02 1.21c.58.01.59-.87 0-.85-.61-.01-.59.85 0 .85zm-.17 1.58c.59.01.58-.86 0-.86-.6-.01-.59.86 0 .86zm3.98-3.37c.58 0 .58-.86 0-.86-.58-.01-.59.86 0 .86zm16.07 17.92c.03-.01.07-.01.1-.02l-.1.02zm4.69 106.42c10.46 4.31-25.08-.21-28.99 2.64-1.85-20.55 5.21-5.78 4.08-18.69 2.47.31 2.47-2.6 3.15-3.19-5.51-2.67 22.26-2.66 16.7 0 .55.61.65 3.48 3.08 3.19-1.9 8.47 4.24 4.3 4.12 9.06-.13.3.27 2.05-.15 2.41.41.4.03 2.06.16 2.4-.51.01-1.01-.04-1.51-.12 1.85 1.05 2.74 2.77-.64 2.3zm-26.64-7.28c1-.22 1.79-.76 2.79-1.04-1.01.27-1.8.81-2.79 1.04zm.93 2.09c.8-.3 1.52-.63 2.35-.85-.65.14-1.24.34-1.73.59-.2.1-.41.18-.62.26zm4.5 3.74c-1.07 0-2.06.16-2.92.44.85-.28 1.85-.44 2.92-.44zm.86-4.82c-.27-.02-.56-.03-.86-.01h-.01c.31-.01.6-.01.87.01zm0-2.41c-.27-.02-.56-.03-.86-.01h-.01c.31-.01.6-.01.87.01zm11.95.39zm-1.06 2.81c1-.5 2.33-.8 3.8-.8-1.47 0-2.81.3-3.8.8zm0 2.41c.99-.49 2.33-.79 3.79-.79-1.46 0-2.8.3-3.79.79zm-5.99-4.13c-1.42-.37-2.54-1.02-3.93-1.32 1.37.3 2.44.94 3.93 1.32zm-3.91 1.09c1.36.31 2.43.95 3.91 1.32-1.41-.37-2.53-1.01-3.91-1.32zm5.98 6.35c-.74 0-1.45-.08-2.1-.22.69.15 1.39.23 2.1.22zm2.15-5.07zm0-2.41zm-6-2.98c1 .5 2.35.82 3.84.82 7.59-.68-1.53-.95-3.84-.82zm8.64 9.23c-.64.19-1.25.44-1.79.72.61-.27 1.19-.52 1.79-.72zm5.36-.17c-.91-.27-1.9-.35-2.89-.28.15 0 .29-.01.45-.01.89 0 1.7.11 2.44.29zm.15-7.18c1.03.33 1.9.83 3.1 1.12-1.14-.28-2.04-.79-3.1-1.12zm3.15 3.53c-1.15-.26-2.05-.78-3.11-1.12 1.03.34 1.89.85 3.11 1.12zm-.43-27.52c-2.94-2.28-2.87-6.95.15-9.13-9.46-9.95-3.61 17.16-5.07 19.7h-16.25v-29.2c-9.5-5.62-7.26-5.92-6.18-14.36 5.22-5.04 6.93-.15 6.18 5.45 2.3-16.77-3.44-16-16.18-11.91 2.02 43.01 5.19 77.03-50.1 76.03-55.32 1-52.47-32.65-50.38-75.96-12.13-4.49-18.87-4.07-16.32 11.85-.92-5.6.9-10.22 6.11-5.67.95 6.62 3.6 9.61-6.11 14.58v29.2h-16.25v-22.02c-8.86 1.27 1.02 6.81-4.92 11.44.17-3.65-5.83-7.14-5.21-13.92 10.12-6.56 10.77-8.16 10.38-18.86-.78 4.42-5.46 4.24-8.22.09-4.18-7.12-6.16-12.84 7.97-16.34.63-17.16-5.27-22.12 16.25-20.03-1.6 18.84.31 17.36 16.32 19.88-1.53-42.74-2.25-31.95 36.36-33.04-7.68-1.91-19.71.34-17.68-7.71-1.57.01-2.52-.84-.96-2.13-2.07-1.71-5.47-1.99-1.52-3.5-4.19.63-10.13-4.1-11.19-6.95.22-1.22-4.83-4.27-5.91-3.28 4.42-6.65-7.36-12.13 4.59-20.72-.21.16-.42.33-.62.51.24-.21.5-.41.76-.61a.71.71 0 00-.14.1c.05-.03.09-.07.14-.1.08-.06.17-.12.25-.18.17-.12.32-.23.5-.35-.17.11-.33.23-.5.35.22-.15.43-.31.66-.45-.06.03-.11.07-.16.1 5.66-4.87 14.86-1.76 20.12-3.93 4.37-7.18 24.28-1.26 20.31-4.69.02-1.68 2.86-1.08 2.07.46 3.24-1.72-.39-.97-1.2-3.49-2.62-3.52 7.78-8.87.47-8.86-.36-2.17.39-2.53 2.43-2.3-.87-3.2 3.27-3.2 2.42-.01 3.39-.86 3.38 3.16 0 2.3-1.11 3.59 2.93 3.76 3.14 7.04.77 3.55-5.19 3.64-1.56 5.41-1.01-1.53 1.97-2.31 2-.55-4.22 3.63 15.82-2.71 20.07 4.53 5.41 2.33 15.76-.57 21.25 4.59 7.06 4.3 6.8 14.8 1.64 17.99 8.22 2.04-1.98 2.87-2.65 6.13-1.04 2.75-7.31 8.14-11.53 6.73 1.32.47 3.64 2.36.63 2.51-3.38.37.76 3.37-2.77 3.38 2.01 7.92-9.95 5.8-17.72 7.68 38.12 1.29 38.6-10.22 36.78 32.99 37.06-1.86-4.63-23.28 32.43-19.82-5.82 32.23 19.5 15.59 7.92 36.62 0-.01.05-.26.05-.27-3.53 5.79-7.85 2.82-8.43-.4-2.12 26.19 19.79 6.2 5.38 33.1zm-4.92-37.07c-.1.65-.17 1.27-.25 1.88.53-1.18 1.84-2.1 4.23-2.18-1.6-.6-4.77-3.28-3.98.3zm-33.83-86.02c.58 1.07.86 2.27.96 3.44-.1-1.16-.36-2.37-.96-3.44zm-99.07 6.38zM205.3 205c-.01.01-.01.01 0 0-.02.03-.04.05-.05.07.01-.02.03-.04.05-.07zm14.95-20.25c.76-5.43 4.61-5.7-2.75-5.83-12.58-3.2-23.08 17.51-9.8 11.2 4.54-3.79 16.89-.02 12.55-5.37zm3.27.25a9.044 9.044 0 01-.25-3.63c-.18 1.21-.07 2.47.25 3.63zm1.07 2.46c-.23-.44-.5-.95-.72-1.47.2.51.43 1.01.72 1.47zm-56.94 83.78c-.03-.84-.07-1.71-.1-2.64-4.04 1.4-4.62 2.15 0 2.08.04.2.06.37.1.56zm78.41-95c-5.78-4.77-21.01-2.1-21 5.47-1.74 9.76 24.24 2.6 21-5.47zm48.45 28.47c-.17-.04-.36-.06-.55-.03.2-.02.38-.01.55.03zm-16.36-24.1c1.66-1.36 1.8 5.77.54 5.18 1.04 1.46 25.26 11.75 18.96-.22-.32-4.26-18.09-10.01-19.5-4.96zm-1.4 3.3c.11-.72.15-1.46.06-2.18.07.73.05 1.47-.06 2.18zm-1.34 3.59l.18-.3c-.07.11-.16.22-.18.3zm-2.05-.26c4.84-6.76-1.3-13.49-10.58-13.45-21.27 3.16.54 13.02 10.58 13.45zM300 198.67c-.02 1.35 2.22 1.35 2.2 0 .02-1.34-2.22-1.34-2.2 0zm3.7-2.65c.01-1.35-2.21-1.35-2.2 0-.02 1.35 2.22 1.35 2.2 0zm1-3.08c.02-1.34-2.22-1.34-2.2 0-.02 1.35 2.22 1.35 2.2 0zm-2.07-3.3c-.02 1.35 2.21 1.35 2.19 0 .02-1.34-2.21-1.33-2.19 0zm-.81-3.24c-.06 1.33 2.22 1.36 2.19-.01.01-1.33-2.21-1.34-2.19.01zm-.59-1.91c1.43.02 1.42-2.1 0-2.08-1.43-.02-1.43 2.1 0 2.08zm-2.25-2.43c1.42.02 1.43-2.09 0-2.07-1.42-.02-1.43 2.09 0 2.07zm-2.62-2.01c1.42.01 1.42-2.09 0-2.08-1.42-.01-1.42 2.09 0 2.08zm-3.12-1.65c1.42.02 1.43-2.09 0-2.07-1.43-.02-1.42 2.09 0 2.07zm-3.24-1.17c1.42.01 1.42-2.09 0-2.08-1.42-.01-1.42 2.09 0 2.08zm-3.62-.65c1.42.01 1.42-2.09 0-2.08-1.42-.01-1.42 2.09 0 2.08zm-3.44-.18c1.42.02 1.43-2.09 0-2.07-1.43-.02-1.42 2.09 0 2.07zm-3.37.12c1.42.01 1.42-2.09 0-2.08-1.43-.02-1.43 2.1 0 2.08zm-3.38 0c1.42.02 1.43-2.09.01-2.08-1.43-.01-1.44 2.09-.01 2.08zm-2.55-2.01c1.42.01 1.43-2.09 0-2.07-1.43-.02-1.42 2.08 0 2.07zm-3-1.66c1.42.03 1.43-2.09.01-2.08-1.43-.01-1.44 2.1-.01 2.08zm-3.3-.99c1.42.02 1.43-2.1.01-2.08-1.43-.02-1.44 2.09-.01 2.08zm-3.44-.6c1.43.02 1.42-2.08.01-2.07-1.41-.02-1.43 2.09-.01 2.07zm-3.36.06c1.42.03 1.43-2.09.01-2.08-1.43-.01-1.44 2.1-.01 2.08zm-3.49.59c1.42.02 1.43-2.09 0-2.07-1.43-.02-1.42 2.09 0 2.07zm-59.21 26.76c-.02 1.35 2.22 1.35 2.2 0 .02-1.34-2.22-1.34-2.2 0zm-.4-3.69c-1.43-.01-1.42 2.1 0 2.08 1.42.02 1.43-2.1 0-2.08zm.1-2.04c.02-1.34-2.22-1.34-2.2 0-.02 1.35 2.22 1.35 2.2 0zm-1.22-2.26c1.42.02 1.43-2.09 0-2.07-1.43-.02-1.42 2.09 0 2.07zm.81-3.24c1.42.02 1.43-2.1 0-2.08-1.42-.02-1.43 2.1 0 2.08zm1.68-2.95c1.43.02 1.42-2.1 0-2.08-1.42-.02-1.43 2.1 0 2.08zm2.25-2.43c1.41.02 1.44-2.09.01-2.07-1.42-.02-1.44 2.09-.01 2.07zm2.62-2.01c1.42.01 1.42-2.09 0-2.08-1.43-.02-1.43 2.1 0 2.08zm3.12-1.65c1.42.02 1.43-2.09 0-2.07-1.43-.02-1.42 2.09 0 2.07zm3.24-1.17c1.42.01 1.42-2.09 0-2.08-1.42-.01-1.42 2.09 0 2.08zm3.62-.65c1.42.02 1.43-2.09.01-2.08-1.43-.01-1.44 2.09-.01 2.08zm3.44-.18c1.42.02 1.43-2.09 0-2.07-1.43-.02-1.42 2.09 0 2.07zm3.37.12c1.42.01 1.42-2.09 0-2.08-1.42-.01-1.43 2.09 0 2.08zm3.38 0c1.42.01 1.42-2.09 0-2.08-1.42-.01-1.42 2.09 0 2.08zm2.55-2.01c1.42.01 1.43-2.09 0-2.07-1.43-.02-1.42 2.08 0 2.07zm3-1.66c1.42.02 1.43-2.1 0-2.08-1.43-.01-1.42 2.1 0 2.08zm3.3-.99c1.43.02 1.42-2.1 0-2.08-1.42-.02-1.43 2.1 0 2.08zm3.44-.6c1.43.02 1.42-2.08 0-2.07-1.42-.02-1.43 2.09 0 2.07zm3.35.06c1.42.03 1.43-2.09.01-2.08-1.43-.02-1.43 2.1-.01 2.08zm3.5.59c1.42.03 1.43-2.09.01-2.07-1.43-.02-1.43 2.09-.01 2.07z"/>
  </symbol>
  <symbol id="flag-fr" viewBox="0 0 3 2">
    <rect width="3" height="2" fill="#ED2939"/>
    <rect width="2" height="2" fill="#fff"/>
    <rect width="1" height="2" fill="#002395"/>
  </symbol>
  <symbol id="flag-hu" viewBox="0 0 6 3">
    <rect fill="#436F4D" width="6" height="3"/>
    <rect fill="#FFF" width="6" height="2"/>
    <rect fill="#CD2A3E" width="6" height="1"/>
  </symbol>
  <symbol id="flag-it" viewBox="0 0 3 2">
    <rect width="1" height="2" fill="#009246"/>
    <rect width="1" height="2" x="1" fill="#fff"/>
    <rect width="1" height="2" x="2" fill="#ce2b37"/>
  </symbol>
  <symbol id="flag-pt" viewBox="0 0 600 400">
    <path fill="red" d="M0 0h600v400H0z"/><path fill="#060" d="M0 0h240v400H0z"/><g fill="#FF0" stroke="#000" stroke-width=".573" stroke-linecap="round" stroke-linejoin="round"><path d="M243.13 99.55h0zM338.99 199.06c.49-.32.87-.63 1.12-.93 0 .01.01.01.01.02v-.03l.01-.01v-2.39 0h0v-.16c-.39-.45-.86-.9-1.37-1.34-.19-3.09-.51-6.15-.98-9.15a97.913 97.913 0 00-8.54-27.61c.67-.32 1.08-.58 1.2-.75.01.01.02.01.03.02l-1.59-2.81c-.28-.31-.8-.66-1.52-1.03l-1.87-3.24c.36-.2.68-.4.89-.57h0v0l-.12-.2c.06.06.13.12.18.19l-2.33-3.7c-.76-.57-1.77-1.16-2.96-1.74-16.95-24.31-44.51-40.71-75.87-42.41v-1.68h-2.16v1.13h-6.25v-1.13h-2.18v1.67c-27.75 1.45-52.53 14.41-69.65 34.18a96.662 96.662 0 00-6.03 7.63c-1.3.05-2.32.32-2.99.83l-.1.18h-.01l-1.17 2.05-.16.32h0c-.24.64-.15 1.41.23 2.3l-4.95 9.18c-.44.07-.82.19-1.11.36l-.08-.02-1.15 2.03c-.51.81-.39 1.89.28 3.21a97.604 97.604 0 00-6.89 30.37c-.65.58-1.08 1.14-1.25 1.66v2.69c0-.01.01-.02.01-.02v.08c.22.13.5.28.84.45v4.01c-.42.45-.72.88-.86 1.29v2.69c0-.01.01-.01.01-.02v.08c.31.18.76.41 1.32.68.99 13.36 4.66 26 10.48 37.38-.39.46-.62.92-.65 1.35l1.17 2.07v-.01l.01.02c.32.1.7.22 1.1.34l2.55 4.15c-.28.35-.45.67-.5.94l.01.02h0l1.18 2.02c.72.31 1.49.63 2.29.94 3.35 4.76 7.1 9.22 11.22 13.31 16.8 16.85 39.6 27.71 64.86 29.03v1.81h2.18v-1.16h6.26v1.16h2.16v-1.82c28.39-1.54 53.66-15.13 70.77-35.73 1.45.14 2.28.05 2.77-.66l.07-.05 1.23-1.93c.3-.44.31-1.04.05-1.77l5.79-8.99c.76.07 1.3.01 1.55-.2.05-.08.17-.3.32-.56l1.22-1.86v0h0c.42-.82.25-1.94-.42-3.32a98.218 98.218 0 008.62-25.89c.62-3.36 1.08-6.77 1.35-10.23.66-.4 1.15-.78 1.46-1.14 0 .01.01.01.01.02v-.03l.01-.01v-2.39 0h0v-.16c-.32-.38-.7-.75-1.11-1.12l-.02-.38v-3.51zm-190.1-39.1c.08-.01.15-.03.23-.04l-.17.29c-.02-.08-.04-.16-.06-.25zm41.94 113.52c-4.82-3.24-9.3-6.95-13.39-11.04 15.05 3.68 34.83 6.74 57.27 7.44v18.5c-5.62-.34-11.11-1.2-16.41-2.56-10.53-2.91-20.07-7.64-27.47-12.34zm32.05-160.31c3.86-.77 7.81-1.28 11.83-1.52v20.53c-19.21.24-36.87 1.51-50.86 4.05-2.24.43-4.38.89-6.42 1.36a89.737 89.737 0 0119.79-14.97c8.22-4.45 17-7.6 25.66-9.45zm52.32 5.7c.08.03.16.07.24.1 4.34 1.94 8.62 4.26 12.76 6.94.02.01.04.03.06.04.46.3.91.61 1.37.91 4.6 3.14 8.9 6.71 12.84 10.64-2.31-.55-4.68-1.07-7.06-1.53-14.11-2.54-31.86-3.69-50.12-3.83v-20.5c10.09.61 19.75 2.93 28.68 6.69.42.19.83.36 1.23.54zm-123.72 81.14c0-.26.01-.51.01-.77 7.01-2.65 15.92-4.94 23.48-6.44 2.34-.46 4.78-.89 7.3-1.31 8.84 5.87 18.94 12.26 29.78 18.92-11.68-.71-21.8-1.84-30.44-3.17-5.73-.94-19.32-3.35-30.13-6.75v-.48zm162.25-48.75c-5.32 1.64-12.49 3.37-21.55 4.62-12.29 1.76-27.58 3.39-46.88 3.65V142.9c18.99.12 37.21 1.19 51.84 3.94 5.88 1.11 11.27 2.31 16 3.54.19.29.39.58.59.88zm-79.09 25.07c-4.01-2.22-7.91-4.35-11.69-6.38 3.77.15 7.69.24 11.76.29v6.09h-.07zm-19.51 11.5c6.3 3.46 12.85 7.19 19.58 11.16v2.83c-7.74-4.71-15.26-9.34-22.38-13.8.93-.07 1.86-.13 2.8-.19zm30.17 50.95c5.59.05 11.01.24 16.28.56 11.21 6.09 21.34 11.22 29.89 15.15-1.31.22-2.65.43-4.04.65-12.09 1.65-21.73 3.28-42.13 3.92v-20.28zm4.93-27.68c-1.63-.95-3.27-1.92-4.93-2.9v-2.82c3.09 1.9 6.1 3.78 9.02 5.62-1.35.04-2.71.07-4.09.1zm-15.52-51.57c-13.77-.15-25.77-.92-35.81-2-8.27-4.05-15.58-7.34-21.73-9.76 1.55-.33 3.14-.66 4.8-.97 14.63-2.55 31.52-3.81 52.75-3.92v16.65zm-36.97 19.07c-.06.01-.11.01-.17.02l-.76-.49c.3.16.62.32.93.47zm70.2 42.52c.62-.04 1.24-.07 1.85-.11 2.8 1.86 5.51 3.68 8.09 5.45-3.21-1.69-6.52-3.47-9.94-5.34zm-101.29 27.82a78.99 78.99 0 017.44-2.52c18.51-5.31 39.57-7.51 60.61-7.66v20.29c-23.69-.8-45.79-4.12-67.29-8.95-.25-.39-.5-.77-.76-1.16zm120.59-40.17c-10.08-6.89-21.47-14.2-33.6-21.53 18.3.66 35.64 2.65 49.96 5.44 8.01 1.61 17.43 3.93 24.9 6.9 0 .15.01.29.01.44 0 .23-.01.47-.01.7-8.32 2.58-19.34 5.06-28.13 6.33-4.06.62-8.44 1.2-13.13 1.72zm-117.3-25.72c-6.71 1.49-12.67 3.2-17.49 4.95.84-5.54 2.05-10.74 3.59-15.61 3.67 3.14 8.37 6.73 13.9 10.66zm61.05 38.82c1.25.74 2.49 1.48 3.72 2.21v3.83c-21.21.3-43.25 2.17-63.54 8.07-3.4.99-6.93 2.16-10.08 3.4-4.21-8.28-7.36-17.49-8.85-27.82 7.13 2.2 16.96 4.63 29.03 6.39 13.11 2 29.55 3.57 49.72 3.92zm96.54-33.59c-6.17-2.3-14.13-4.41-23.5-6.28-16.62-3.23-37.25-5.41-58.73-5.68v-6.09c20.35-.27 36.87-1.97 49.77-3.94 9.81-1.7 18.12-3.68 24.22-5.42a88.89 88.89 0 013.88 9.01c1.85 5.57 3.26 11.63 4.36 18.4zm-82.22 100.06v-18.41c16.13-.35 33.29-2.16 44.8-4.54 2.75-.45 7.15-1.37 12.01-2.54a87.076 87.076 0 01-5.88 5.32c-14.05 11.24-31.31 18.62-50.93 20.17zm75.7-53.57c-5.05-4.79-12.22-10.56-20.92-16.93l.6-.09c10.54-1.71 19.97-3.78 27.01-5.81l-.03.23c-1.34 8.08-3.71 15.71-6.66 22.6zm-164.84-89.38c.18-.06.36-.11.54-.14l-.04.02-.36.68c-.06-.18-.1-.36-.14-.56zm171.41 101.99l.07-.4c.07.3.11.59.12.86-.17.04-.35.07-.54.09l.35-.55z"/></g><g stroke="#000"><path fill="#FFF" stroke-width=".67" d="M180.6 211.01c0 16.27 6.66 30.99 17.46 41.74 10.82 10.78 25.51 17.58 41.81 17.58 16.38 0 31.25-6.65 42.02-17.39 10.77-10.74 17.44-25.55 17.45-41.88h0v-79.19l-118.74-.14v79.28h0z"/><path fill="red" stroke-width=".507" d="M182.82 211.12v.04c0 15.56 6.44 29.72 16.77 40.01 10.35 10.31 24.61 16.71 40.21 16.71 15.68 0 29.91-6.36 40.22-16.63 10.31-10.26 16.7-24.43 16.7-40.04h0v-76.83l-113.84-.02-.06 76.76m91.02-53.75v48.89l-.04 5.17h0c0 1.36-.08 2.91-.24 4.23-.93 7.73-4.48 14.47-9.75 19.71-6.16 6.14-14.67 9.94-24.05 9.94-9.33 0-17.64-3.94-23.83-10.1-6.35-6.32-10.03-14.99-10.03-23.95l-.01-54.02 67.95.13h0z"/></g>
  </symbol>
  <symbol id="flag-ru" viewBox="0 0 9 6">
    <rect fill="#fff" width="9" height="3"/>
    <rect fill="#d52b1e" y="3" width="9" height="3"/>
    <rect fill="#0039a6" y="2" width="9" height="2"/>
  </symbol>
  <symbol id="flag-ro" viewBox="0 0 3 2">
    <rect width="1" height="2" x="0" y="0" fill="#002B7F"/>
    <rect width="1" height="2" x="1" y="0" fill="#FCD116"/>
    <rect width="1" height="2" x="2" y="0" fill="#CE1126"/>
  </symbol>
  <symbol id="flag-sv" viewBox="0 0 16 10">
    <rect width="16" height="10" fill="#006aa7"/>
    <rect width="2" height="10" x="5" fill="#fecc00"/>
    <rect width="16" height="2" y="4" fill="#fecc00"/>
  </symbol>
  <symbol id="flag-tr" viewBox="0 0 1200 800">
    <rect width="1200" height="800" fill="#E30A17"/>
    <circle cx="425" cy="400" r="200" style="fill:#ffffff"/>
    <circle cx="475" cy="400" r="160" style="fill:#E30A17"/>
    <polygon style="fill:#ffffff" points="583.334,400 764.235,458.779 652.431,304.894 652.431,495.106 764.235,341.221"/>
  </symbol>
  <symbol id="flag-cn" viewBox="0 0 30 20">
    <defs>
      <path id="s" d="M0,-1 0.587785,0.809017 -0.951057,-0.309017H0.951057L-0.587785,0.809017z" fill="#ffde00"/>
    </defs>
    <rect width="30" height="20" fill="#de2910"/>
    <use xlink:href="#s" transform="translate(5,5) scale(3)"/>
    <use xlink:href="#s" transform="translate(10,2) rotate(23.036243)"/>
    <use xlink:href="#s" transform="translate(12,4) rotate(45.869898)"/>
    <use xlink:href="#s" transform="translate(12,7) rotate(69.945396)"/>
    <use xlink:href="#s" transform="translate(10,9) rotate(20.659808)"/>
  </symbol>
  <symbol id="flag-cs" viewBox="0 0 900 600">
    <rect width="900" height="600" fill="#d7141a"/>
    <rect width="900" height="300" fill="#fff"/>
    <path d="M 450,300 0,0 V 600 z" fill="#11457e"/>
  </symbol>
  <symbol id="flag-el" viewBox="0 0 27 18">
    <rect fill="#0D5EAF" width="27" height="18"/>
    <path fill="none" stroke-width="2" stroke="#FFF" d="M5,0V11 M0,5H10 M10,3H27 M10,7H27 M0,11H27 M0,15H27"/>
  </symbol>
  <symbol id="flag-fi" viewBox="0 0 1800 1100">
    <rect width="1800" height="1100" fill="#fff"/>
    <rect width="1800" height="300" y="400" fill="#003580"/>
    <rect width="300" height="1100" x="500" fill="#003580"/>
  </symbol>
  <symbol id="flag-in" viewBox="0 0 225 150">
    <rect width="225" height="150" fill="#f93"/>
    <rect width="225" height="50" y="50" fill="#fff"/>
    <rect width="225" height="50" y="100" fill="#128807"/>
    <g transform="translate(112.5,75)">
      <circle r="20" fill="#008"/>
      <circle r="17.5" fill="#fff"/>
      <circle r="3.5" fill="#008"/>
      <g id="d">
        <g id="c">
          <g id="b">
            <g id="a">
              <circle r="0.875" fill="#008" transform="rotate(7.5) translate(17.5)"/>
              <path fill="#008" d="M 0,17.5 0.6,7 C 0.6,7 0,2 0,2 0,2 -0.6,7 -0.6,7 L 0,17.5 z"/>
            </g>
            <use xlink:href="#a" transform="rotate(15)"/>
          </g>
          <use xlink:href="#b" transform="rotate(30)"/>
        </g>
        <use xlink:href="#c" transform="rotate(60)"/>
      </g>
      <use xlink:href="#d" transform="rotate(120)"/>
      <use xlink:href="#d" transform="rotate(-120)"/>
    </g>
  </symbol>
  <symbol id="flag-no" viewBox="0 0 1100 800">
    <rect width="1100" height="800" fill="#ef2b2d"/>
    <rect width="200" height="800" x="300" fill="#fff"/>
    <rect width="1100" height="200" y="300" fill="#fff"/>
    <rect width="100" height="800" x="350" fill="#002868"/>
    <rect width="1100" height="100" y="350" fill="#002868"/>
  </symbol>
  <symbol id="flag-sk" viewBox="0 0 9 6">
    <rect width="9" height="6" fill="#ee1c25"/>
    <rect width="9" height="4" fill="#0b4ea2"/>
    <rect width="9" height="2" fill="#fff"/>
    <path fill="#fff" d="M3.16255,4.635c-0.53781-0.25905-1.3071-0.77323-1.3071-1.79033,0-1.01711,0.04863-1.47967,0.04863-1.47967h1.25847,1.2585s0.04864,0.46256,0.04864,1.47967c0,1.0171-0.76929,1.53128-1.30714,1.79033z"/>
    <path fill="#ee1c25" d="M3.16255,4.5c-0.4934-0.23766-1.19917-0.70938-1.19917-1.64251,0-0.933128,0.044612-1.35749,0.044612-1.35749h1.15456,1.15459s0.044626,0.424365,0.044626,1.35749c0,0.933128-0.705776,1.40485-1.19921,1.64251z"/>
    <path fill="#fff" d="m3.26808,2.61284c0.133599,0.00216,0.394255,0.00739,0.626352-0.070273,0,0-0.00613,0.083055-0.00613,0.179805,0,0.096773,0.00613,0.179822,0.00613,0.179822-0.21289-0.07125-0.4758-0.07273-0.62635-0.07082v0.515391h-0.211033v-0.515391c-0.150545-0.00191-0.41345-0.0004252-0.626352,0.070815,0,0,0.00613-0.083049,0.00613-0.179822,0-0.09675-0.00613-0.179805-0.00613-0.179805,0.2321,0.077665,0.492753,0.072432,0.626352,0.070273v-0.323676c-0.121766-0.00108-0.297234,0.00473-0.49563,0.071126,0,0,0.00613-0.083055,0.00613-0.179822,0-0.096756-0.00613-0.179811-0.00613-0.179811,0.198103,0.066283,0.373356,0.072192,0.495088,0.071137-0.00626-0.20498-0.06597-0.46332-0.06597-0.46332s0.12289,0.00959,0.172016,0.00959c0.049178,0,0.172031-0.00959,0.172031-0.00959s-0.059695,0.258346-0.065964,0.463301c0.121741,0.00106,0.296989-0.00485,0.495086-0.071137,0,0-0.00613,0.083055-0.00613,0.179811,0,0.096767,0.00613,0.179822,0.00613,0.179822-0.198388-0.066392-0.373863-0.072207-0.495627-0.071126v0.323676z"/>
    <path fill="#0b4ea2" d="m3.1625,3.29094c-0.24847,0-0.381562,0.344688-0.381562,0.344688s-0.073834-0.163438-0.276562-0.163438c-0.137161,0-0.238243,0.12201-0.3025,0.235,0.24954,0.39705,0.64768,0.64207,0.96062,0.79281,0.31299-0.15075,0.71139-0.39571,0.96094-0.79281-0.064256-0.11299-0.165339-0.235-0.3025-0.235-0.202734,0-0.276875,0.163438-0.276875,0.163438s-0.133073-0.344688-0.381562-0.344688z"/>
  </symbol>
  <symbol id="flag-th" viewBox="0 0 900 600">
    <rect fill="#A51931" width="900" height="600"/>
    <rect fill="#F4F5F8" y="100" width="900" height="400"/>
    <rect fill="#2D2A4A" y="200" width="900" height="200"/>
  </symbol>
</svg>
